<?xml version="1.0" encoding="iso-8859-1"?>
<!-- Generator: Adobe Illustrator 19.0.0, SVG Export Plug-In . SVG Version: 6.00 Build 0)  -->
<svg xmlns="http://www.w3.org/2000/svg" xmlns:xlink="http://www.w3.org/1999/xlink" version="1.1" id="Layer_1" x="0px" y="0px" viewBox="0 0 480 480" style="enable-background:new 0 0 480 480;" xml:space="preserve" width="512px" height="512px">
<g transform="translate(0 -540.36)">
	<g>
		<g>
			<circle cx="192.9" cy="771.908" r="7.5" fill="#91DC5A"/>
			<path d="M246.4,675.21c-53.4,0-96.9,44-96.9,98.1c0,25.7,10.1,50,28.5,68.4c18.4,18.4,42.7,28.5,68.4,28.5v0     c54.1,0,98.1-43.5,98.1-96.9c0-26.2-10.2-50.9-28.7-69.4S272.7,675.21,246.4,675.21z M246.4,855.21c-45.2,0-81.9-36.7-81.9-81.9     c0-45.8,36.7-83.1,81.9-83.1c45.8,0,83.1,37.3,83.1,83.1C329.5,818.51,292.2,855.21,246.4,855.21z" fill="#91DC5A"/>
			<path d="M69.1,646.61L69.1,646.61c-4.1,0-7.5,3.4-7.5,7.5v70.8H45.8v-70.8c0-4.1-3.4-7.5-7.5-7.5c-4.1,0-7.5,3.4-7.5,7.5v70.8H15     v-70.8c0-4.1-3.4-7.5-7.5-7.5s-7.5,3.4-7.5,7.5v70.8v0.4v24.9c0,14.4,13.5,26.8,30.8,29.5v40.1H15.1v100     c0,10,10.1,18.2,22.6,18.2h1.2c12.5,0,22.6-8.2,22.6-18.2v-100H45.8v-40.2c17.6-2.9,30.8-15,30.8-29.4v-24.9v-0.4v-70.8     C76.6,650.01,73.3,646.61,69.1,646.61z M46.5,834.71v85c0,0.7-2.8,3.2-7.6,3.2h-1.2c-4.8,0-7.6-2.5-7.6-3.2v-85H46.5z      M61.6,750.21c0,7.1-10.2,15-23.9,15c-12.8,0-22.7-8.1-22.7-15v-10.3h46.6V750.21z" fill="#91DC5A"/>
			<path d="M476,647.61c-2.4-1.3-5.4-1.1-7.7,0.4c-41.2,27.5-49.8,68.2-49.8,97.5v80.6c0,4.1,3.4,7.5,7.5,7.5h7.6v96.8     c0,4.1,3.4,7.5,7.5,7.5h31.4c4.1,0,7.5-3.4,7.5-7.4v-276.3C480,651.41,478.4,648.91,476,647.61z M465,922.91h-16.4v-89.3H465     V922.91z M465,818.61h-31.5v-73.2c0-22.5,5.8-52.8,31.5-76V818.61z" fill="#91DC5A"/>
			<path d="M247,622.71c-40,0-77.6,15.5-105.9,43.6c-28.4,28.3-44.1,66-44.1,106.4c0,39.9,15.7,77.5,44.1,105.9     c28.4,28.5,66,44.1,105.9,44.1c40.3,0,78.1-15.7,106.4-44.1c28.1-28.2,43.6-65.9,43.6-105.9c0-40.5-15.5-78.3-43.6-106.4     C325.3,638.21,287.5,622.71,247,622.71z M247,907.71c-74.4,0-135-60.6-135-135s60.6-135,135-135c75.7,0,135,59.3,135,135     C382,847.11,321.4,907.71,247,907.71z" fill="#91DC5A"/>
			<path d="M229.5,709.81c-16,5.5-29.4,19.1-36,36.5c-1.4,3.9,0.5,8.2,4.4,9.7c0.8,0.3,1.7,0.5,2.6,0.5c3,0,5.9-1.9,7-4.9     c5-13.3,15-23.6,26.8-27.6c3.9-1.3,6-5.6,4.7-9.5S233.4,708.51,229.5,709.81z" fill="#91DC5A"/>
		</g>
	</g>
</g>
<g>
</g>
<g>
</g>
<g>
</g>
<g>
</g>
<g>
</g>
<g>
</g>
<g>
</g>
<g>
</g>
<g>
</g>
<g>
</g>
<g>
</g>
<g>
</g>
<g>
</g>
<g>
</g>
<g>
</g>
</svg>
